<?xml version="1.0" encoding="UTF-8"?>
<svg version="1.1" xmlns="http://www.w3.org/2000/svg" width="50" height="50">
<path d="M0 0 C13.86 0 27.72 0 42 0 C42 13.86 42 27.72 42 42 C28.14 42 14.28 42 0 42 C0 28.14 0 14.28 0 0 Z M2 2 C2 4.64 2 7.28 2 10 C4.64 10 7.28 10 10 10 C10 7.36 10 4.72 10 2 C7.36 2 4.72 2 2 2 Z M12 2 C12 4.64 12 7.28 12 10 C14.64 10 17.28 10 20 10 C20 7.36 20 4.72 20 2 C17.36 2 14.72 2 12 2 Z M22 2 C22 4.64 22 7.28 22 10 C24.64 10 27.28 10 30 10 C30 7.36 30 4.72 30 2 C27.36 2 24.72 2 22 2 Z M32 2 C32 4.64 32 7.28 32 10 C34.64 10 37.28 10 40 10 C40 7.36 40 4.72 40 2 C37.36 2 34.72 2 32 2 Z M2 12 C2 14.64 2 17.28 2 20 C4.64 20 7.28 20 10 20 C10 17.36 10 14.72 10 12 C7.36 12 4.72 12 2 12 Z M12 12 C12 14.64 12 17.28 12 20 C14.64 20 17.28 20 20 20 C20 17.36 20 14.72 20 12 C17.36 12 14.72 12 12 12 Z M22 12 C22 14.64 22 17.28 22 20 C24.64 20 27.28 20 30 20 C30 17.36 30 14.72 30 12 C27.36 12 24.72 12 22 12 Z M32 12 C32 14.64 32 17.28 32 20 C34.64 20 37.28 20 40 20 C40 17.36 40 14.72 40 12 C37.36 12 34.72 12 32 12 Z M2 22 C2 24.64 2 27.28 2 30 C4.64 30 7.28 30 10 30 C10 27.36 10 24.72 10 22 C7.36 22 4.72 22 2 22 Z M12 22 C12 24.64 12 27.28 12 30 C14.64 30 17.28 30 20 30 C20 27.36 20 24.72 20 22 C17.36 22 14.72 22 12 22 Z M22 22 C22 24.64 22 27.28 22 30 C24.64 30 27.28 30 30 30 C30 27.36 30 24.72 30 22 C27.36 22 24.72 22 22 22 Z M32 22 C32 24.64 32 27.28 32 30 C34.64 30 37.28 30 40 30 C40 27.36 40 24.72 40 22 C37.36 22 34.72 22 32 22 Z M2 32 C2 34.64 2 37.28 2 40 C4.64 40 7.28 40 10 40 C10 37.36 10 34.72 10 32 C7.36 32 4.72 32 2 32 Z M12 32 C12 34.64 12 37.28 12 40 C14.64 40 17.28 40 20 40 C20 37.36 20 34.72 20 32 C17.36 32 14.72 32 12 32 Z M22 32 C22 34.64 22 37.28 22 40 C24.64 40 27.28 40 30 40 C30 37.36 30 34.72 30 32 C27.36 32 24.72 32 22 32 Z M32 32 C32 34.64 32 37.28 32 40 C34.64 40 37.28 40 40 40 C40 37.36 40 34.72 40 32 C37.36 32 34.72 32 32 32 Z " fill="#fff" transform="translate(4,4)"/>
</svg>
